<svg width="112" height="40" viewBox="0 0 112 40" fill="none" xmlns="http://www.w3.org/2000/svg">
<g clip-path="url(#clip0_2311_13)">
<path d="M12.9306 33.2232C12.8362 23.143 12.9495 10.3634 15.4412 0.887211C15.5923 0.453044 15.4035 0 14.9127 0C14.554 0 14.3841 0.169891 14.2709 0.604059C12.0812 10.0236 11.8358 19.6697 11.8169 29.278C11.0241 26.2765 10.1935 22.6899 9.09862 17.7253C8.07928 13.0816 7.51297 9.43841 6.68239 2.07645C6.60688 1.43464 6.2671 1.09486 5.7008 1.09486C5.09674 1.09486 4.75695 1.51015 4.75695 2.22747C4.75695 3.64323 4.90797 5.79519 5.11561 7.96602C4.98348 16.0075 4.36054 27.0882 2.41623 34.2237C2.28409 34.6767 2.09532 34.9599 1.96318 34.9599C1.68003 34.9599 1.43463 34.3181 1.01934 32.4304C0.943835 32.185 0.811697 32.0151 0.490791 32.0151C0.169885 32.0151 -0.03776 32.2983 0.0377473 32.7513C1.0571 37.7159 1.26474 38.9618 2.18971 38.9618C2.83152 38.9618 3.20905 38.471 3.49221 37.3384C5.15337 30.7504 5.68192 21.8782 5.98395 14.1954C7.2487 21.916 9.15526 29.8254 10.9863 35.5828C11.2317 36.3568 11.6847 36.6777 12.2888 36.6777C13.2326 36.6777 13.7046 35.9792 13.3837 34.6767C13.2138 34.1671 13.0816 33.6951 12.9306 33.2232ZM24.3889 12.9684C25.0307 12.9684 26.0123 11.8358 26.0123 10.9863C26.0123 10.1746 25.4082 9.47617 24.7853 9.47617C23.8603 9.47617 23.6527 10.9297 23.6527 11.5904C23.6527 12.4398 23.8603 12.9684 24.3889 12.9684ZM57.2345 26.1067C57.2345 25.7857 57.0646 25.5403 56.7437 25.5403C56.4606 25.5403 56.2907 25.7102 56.2152 26.0689C55.9698 27.7301 55.8188 28.1831 55.5734 28.1831C55.0826 28.1831 54.9316 25.9556 54.9316 23.7848C54.9316 22.1992 54.8561 19.4431 54.8561 15.781C54.8561 15.4601 54.7239 15.2147 54.4408 15.2147C54.1576 15.2147 54.0255 15.3846 53.8745 15.7055C52.3454 19.1222 50.9674 23.1996 50.0236 27.5224C49.9481 25.2383 49.8537 22.1048 49.8537 19.9339C49.8537 17.782 49.8159 16.1963 49.7404 15.2902C49.7027 14.7239 49.4573 14.4408 49.0042 14.4408C48.5134 14.4408 48.2303 14.7994 48.2303 15.328C48.2303 16.3851 48.2303 17.3289 48.1548 18.1784C47.9094 21.1798 47.513 23.4261 46.6824 26.3521C46.437 27.2015 46.1538 27.6546 45.8707 27.6546C45.4176 27.6546 45.2666 25.4648 45.2666 22.9731C45.2666 20.2548 45.3988 17.8197 45.5498 16.0264C45.5875 15.6111 45.3421 15.4224 45.0212 15.4224C44.7003 15.4224 44.4927 15.63 44.4172 15.9509C44.4172 15.9698 44.3983 16.0076 44.3983 16.0264C44.1151 15.7999 43.7942 15.6678 43.4922 15.6678C41.2647 15.6678 39.6791 19.1977 39.3016 24.974C39.226 25.9556 39.1317 29.0892 38.4898 29.0892C37.7914 29.0892 37.5083 24.6531 37.5083 21.7272C37.5083 19.8584 37.6215 18.8768 37.7159 16.5172C37.7537 15.7433 37.7914 14.6484 37.3195 14.6484C36.9986 14.6484 36.5833 15.3091 36.0547 16.6494C35.0543 19.1789 34.4691 21.3686 33.865 25.1062C33.8273 24.2567 33.8084 23.294 33.8084 22.3313C33.7706 19.8962 33.8084 18.2728 33.6007 15.8565C33.563 15.4601 33.4686 15.2147 33.1855 15.2147C32.9778 15.2147 32.789 15.2902 32.5436 15.8188C31.6187 17.782 30.8636 19.7452 30.184 22.067C30.184 21.1798 30.2218 20.0849 30.2218 19.9339C30.2218 17.6498 30.1463 16.2341 30.0142 14.8561C29.9386 14.2898 29.6177 13.9689 29.2024 13.9689C28.7117 13.9689 28.3907 14.2898 28.2586 14.9127C27.6545 17.5932 25.446 28.9382 24.1057 28.9382C23.8981 28.9382 23.7848 28.5229 23.7848 27.7489C23.7848 25.8801 23.9924 22.8598 25.0495 16.0453C25.1251 15.5923 24.9174 15.4035 24.5965 15.4035H23.9924C23.4261 15.4035 22.9731 15.7999 22.8221 16.4228C22.5389 17.6876 22.3313 19.8773 21.8971 23.294C21.5007 26.5408 19.5375 30.6182 18.3671 30.6182C17.8008 30.6182 17.4799 30.2218 17.2345 29.2402C17.1779 29.0892 17.1402 28.6928 17.1024 28.1265C17.2723 27.8244 17.4422 27.5224 17.5932 27.2204C19.3487 23.8792 20.3681 20.4814 20.3681 18.0274C20.3681 16.2341 19.8773 15.3846 18.8579 15.3846C16.4983 15.3846 14.6673 19.9339 14.6673 25.748C14.6673 27.0694 14.8561 28.2964 15.1958 29.3346C14.8749 29.7876 14.554 30.2596 14.1765 30.7504C14.0632 30.8825 14.0066 31.0713 14.0066 31.2411C14.0066 31.5621 14.252 31.7319 14.4974 31.7319C14.6673 31.7319 14.8183 31.6942 14.9882 31.4488C15.1958 31.1656 15.4412 30.8259 15.6678 30.4483C16.2341 31.5243 16.9891 32.185 17.8386 32.185C19.1789 32.185 20.8589 29.9575 21.8216 27.1638C21.8216 27.9377 21.8594 28.806 21.9349 29.882C22.067 31.5054 22.4257 32.1661 23.1619 32.1661C23.6527 32.1661 24.3511 31.4299 24.8797 30.3351C26.1633 27.7301 27.126 24.4644 28.4663 18.0274V18.3483C28.4663 22.7843 27.9755 27.4658 27.1637 31.5998C27.0882 31.9585 27.2015 32.1661 27.5224 32.1661H27.9755C28.6361 32.1661 29.1081 31.8075 29.2024 31.2411C29.4856 29.7876 29.6555 28.6739 29.9386 26.8806C30.3162 24.5588 30.9014 22.0859 31.5998 19.9528C31.5809 20.7834 31.5621 21.6895 31.5621 22.6144C31.5621 25.5026 31.8452 28.3908 32.3738 31.2034C32.5059 31.9018 32.7702 32.1472 33.1855 32.1472C33.5819 32.1472 33.8461 31.8641 33.9217 31.1656C34.1671 28.2209 34.7334 24.6154 35.4696 21.1798C35.5262 24.4266 35.5262 25.8613 35.866 27.9566C36.319 30.6748 37.0363 32.1472 37.848 32.1472C38.471 32.1472 38.924 31.3167 39.4148 29.0703C39.7735 30.8259 40.5474 32.1472 41.3402 32.1472C42.1897 32.1472 43.1524 30.505 43.7376 29.2591C43.983 30.656 44.6248 31.9773 45.1156 31.9773C45.6064 31.9773 46.0595 31.3355 46.588 29.9009C47.3431 27.6734 47.7961 26.1633 48.1548 24.3322C48.0793 26.3709 48.1359 28.7305 48.3247 29.9009C48.6078 31.5243 48.8155 32.1472 49.4573 32.1472C49.9858 32.1472 50.118 31.8263 50.2312 31.2223C51.1751 25.9368 51.9868 23.2751 52.8551 20.7456C52.8174 21.7839 52.7985 22.8221 52.7985 23.8226C52.7985 25.8046 52.874 27.5224 52.9684 28.4474C53.327 31.0146 53.7801 32.1472 54.4785 32.1472C56.0453 32.2416 57.2345 27.126 57.2345 26.1067ZM17.0269 24.5588C17.0269 22.8976 17.8386 16.5927 18.8579 16.5927C19.2166 16.5927 19.3487 17.0458 19.3487 18.1784C19.3487 19.8773 18.4993 23.1807 17.4422 25.5781C17.3289 25.8424 17.1968 26.1255 17.0458 26.4087C17.0458 25.8235 17.0269 25.2006 17.0269 24.5588ZM42.3974 29.6744C41.7555 29.6744 41.3025 27.3903 41.3025 24.1435C41.3025 20.4059 42.5295 16.5361 43.7376 16.5361C43.9453 16.5361 44.0963 16.6116 44.2473 16.8381C43.7187 19.4243 43.4733 21.7272 43.4733 24.3889C43.4733 25.446 43.53 26.5786 43.6055 27.7867C43.2468 28.7683 42.6805 29.6744 42.3974 29.6744Z" fill="white"/>
<path d="M110.656 26.1821C109.995 25.8045 109.146 25.4836 108.353 25.3138C108.013 23.8036 107.636 22.1236 107.636 20.0849C107.636 18.4237 107.843 17.2722 107.994 15.7432C108.032 15.3279 107.824 15.0825 107.466 15.0825C107.05 15.0825 106.862 15.2902 106.805 15.6488C106.069 19.7073 105.352 21.7838 104.483 24.5587C104.162 25.5025 103.105 28.6738 102.445 28.6738C102.161 28.6738 101.916 28.2774 101.916 26.6729C101.916 23.6148 102.558 19.8395 102.765 16.4605C102.803 15.8942 102.445 15.5356 101.878 15.5356C101.35 15.5356 100.991 15.8942 100.953 16.5171C100.821 18.3104 100.538 20.5757 100.066 23.3883C99.462 26.8428 98.6881 28.7116 97.8386 28.7116C97.4233 28.7116 97.1402 28.183 97.1402 27.2958C97.1402 22.5011 98.3105 16.234 98.4427 15.1391C98.4804 14.8937 98.3672 14.7238 98.084 14.7238H97.5177C96.9136 14.7238 96.4984 15.007 96.3851 15.8187C96.2718 16.5927 96.1397 17.8196 95.781 19.8395C94.6107 26.4652 93.2138 29.6743 91.4394 29.6743C90.5144 29.6743 89.8915 28.5039 89.8915 26.8239C89.8915 20.7644 91.0618 16.4983 92.6097 16.4983C92.9684 16.4983 93.3459 16.9891 93.3459 17.8385C93.3459 19.3487 91.6281 19.7828 91.6281 20.9721C91.6281 21.5384 91.9868 21.9537 92.5531 21.9537C93.3648 21.9537 94.3086 20.7833 94.3086 17.8952C94.3086 16.2717 93.7801 15.4223 92.5909 15.4223C90.4011 15.4223 88.4757 18.8012 87.966 24.4454C87.7584 26.8805 86.8712 28.5983 86.0217 28.5983C85.5687 28.5983 85.3233 27.9565 85.3233 26.805C85.3233 23.1429 86.3804 18.8768 87.3053 16.5549C87.3808 16.385 87.3808 16.234 87.2298 16.1396L86.8712 15.8942C86.739 15.781 86.588 15.7621 86.4181 15.7621C86.135 15.7621 85.9651 15.8376 85.7574 16.0452C85.0967 16.7059 84.4927 17.0646 84.0396 17.0646C83.5111 17.0646 83.2657 16.536 83.2657 15.3657C83.2657 14.9692 83.0581 14.7238 82.6616 14.7238C82.2652 14.7238 82.0198 15.007 82.0198 15.46C82.0198 18.9523 81.8499 20.5002 81.6234 23.2184C81.3403 26.6351 80.8495 28.6172 80.2077 28.6172C79.547 28.6172 79.4337 24.3888 79.4337 20.9343C79.4337 19.2732 79.5092 17.2722 79.6036 16.0641C79.6413 15.6677 79.4337 15.4223 79.075 15.4223C78.7541 15.4223 78.5465 15.5922 78.471 15.9886C78.4521 16.0641 78.4332 16.1396 78.4332 16.234C78.1123 15.932 77.6593 15.7432 77.1307 15.7432C75.092 15.7432 73.3176 20.2548 73.3176 24.8607C73.3176 27.0504 72.6192 29.6554 72.0151 29.6554C71.732 29.6554 71.4488 28.4851 71.2789 26.5974C70.4672 18.6691 70.3917 9.19294 70.8259 3.09572C70.8636 2.56717 70.7504 2.32177 70.4295 2.32177C70.1841 2.32177 70.0142 2.45391 69.9009 2.92583C68.3341 9.64598 66.673 17.3289 65.7102 22.3312C65.5592 20.3303 65.1628 16.7437 64.6154 12.8362C64.0868 9.0608 63.445 3.96406 63.3129 1.03815C63.2751 0.339705 62.9542 0.0187988 62.3879 0.0187988C61.7461 0.0187988 61.4441 0.434089 61.5007 1.15141C61.6329 2.45391 61.7461 3.77529 61.8594 5.05891C61.614 13.1571 59.7263 25.5969 57.933 34.5823C57.8197 35.1108 57.6121 35.5639 57.159 35.5639C56.8004 35.5639 56.4606 35.1108 56.1397 34.0537C56.0264 33.7328 55.8943 33.6007 55.6111 33.6007C55.2147 33.6007 55.0448 33.9971 55.1581 34.3746C56.4984 39.2637 56.6305 40.0188 57.3856 40.0188C57.9141 40.0188 58.1973 39.5658 58.4804 38.3576C59.8018 32.9022 61.5951 20.8966 62.4634 12.2699C62.5389 13.2326 62.5956 14.082 62.6333 14.7427C63.1996 23.4827 63.445 27.7489 64.0491 33.1288C64.0868 33.4497 64.219 33.6951 64.5399 33.6951C64.9363 33.6951 65.0684 33.3742 65.1062 33.1288C66.1067 26.0499 67.1071 20.0471 68.1454 14.8749C68.3152 21.7083 68.6739 28.2963 69.0137 30.939C69.3724 33.5818 69.8254 34.6389 70.5238 34.6389C71.3922 34.6389 72.7324 32.0717 73.5064 29.1457C73.8273 30.9202 74.6767 32.2415 75.6395 32.2415C76.0548 32.2415 76.4134 31.9584 76.9042 31.26C77.1874 30.8447 77.4894 30.2972 77.848 29.4855C78.1123 31.1089 78.9052 32.4492 79.698 32.4492C81.1137 32.4492 82.1331 29.3911 82.5861 23.4261C82.7371 21.6139 82.8693 20.1226 82.9825 18.8956C83.2091 19.1599 83.5111 19.3109 83.8698 19.3109C84.3606 19.3109 84.9269 19.0466 85.6631 18.4426C84.1907 22.5577 83.3412 26.6162 83.3412 29.5233C83.3412 31.2788 83.7943 32.2415 84.6815 32.2415C85.7952 32.2415 86.8334 30.788 87.8339 27.8055C87.966 30.3161 89.193 32.2415 90.7409 32.2415C92.2322 32.2415 93.7801 30.0518 95.0826 26.2576C95.0448 27.0315 95.0071 27.6356 95.0071 28.1264C95.0071 29.3534 95.2147 32.2415 96.8004 32.2415C97.8764 32.2415 98.6503 31.0146 99.9717 26.7861C99.9339 27.428 99.9151 28.1453 99.9151 28.7871C99.9151 30.939 100.444 32.0717 101.425 32.0717C102.331 32.0717 102.992 31.2977 103.898 28.9381C104.03 30.8447 105.182 32.2415 106.711 32.2415C108.051 32.2415 108.938 30.939 108.938 28.957V28.8437C108.9 27.73 108.768 27.0882 108.598 26.3709C109.429 26.5596 109.901 26.8994 110.241 27.1448C110.354 27.2203 110.448 27.2581 110.562 27.2581C110.845 27.2581 111.09 27.0882 111.09 26.805C111.071 26.5596 111.015 26.3897 110.656 26.1821ZM76.6588 29.6743C75.8094 29.6743 75.3563 27.9188 75.3563 24.6342C75.3563 19.9527 76.2058 16.5927 77.4328 16.5927C77.7725 16.5927 78.0557 16.7814 78.2822 17.159C77.8858 19.6129 77.7159 22.1613 77.7159 24.8796C77.7159 26.3331 77.7348 27.2769 77.7725 28.0698C77.395 28.9381 76.9042 29.6743 76.6588 29.6743ZM106.503 25.1627V25.2571C105.899 25.3515 105.389 25.5591 104.974 25.8989C105.559 24.1623 105.993 22.7654 106.352 21.4629C106.352 22.6332 106.39 23.8414 106.503 25.1627ZM105.861 29.8064C105.333 29.8064 104.88 29.108 104.88 28.3529C104.88 27.0693 105.408 26.4275 106.616 26.2765C106.711 27.0882 106.786 27.7677 106.786 28.4284C106.786 29.2779 106.428 29.8064 105.861 29.8064Z" fill="white"/>
</g>
<defs>
<clipPath id="clip0_2311_13">
<rect width="111.071" height="40" fill="white"/>
</clipPath>
</defs>
</svg>
